<svg display="none" xmlns="http://www.w3.org/2000/svg">
    <symbol id="icon-basket" viewBox="0 0 512 512">
      <path d="M486.861 263.5h2.639c12.406 0 22.5-10.093 22.5-22.5s-10.094-22.5-22.5-22.5h-30v-15C459.5 91.29 368.21 0 256 0S52.5 91.29 52.5 203.5v15h-30C10.094 218.5 0 228.593 0 241s10.094 22.5 22.5 22.5h2.639C9.82 275.884 0 294.813 0 316v15a7.5 7.5 0 007.5 7.5c9.839 0 17.505-.807 23.942-2.048l20.2 119.316A67.32 67.32 0 00118.195 512h275.609a67.32 67.32 0 0066.553-56.232l20.2-119.316c6.438 1.241 14.104 2.048 23.942 2.048a7.5 7.5 0 007.5-7.5v-15c.001-21.187-9.819-40.116-25.138-52.5zm2.639-30c4.136 0 7.5 3.364 7.5 7.5s-3.364 7.5-7.5 7.5H437c-9.777 0-18.114-6.271-21.21-15zm-422-30C67.5 99.561 152.061 15 256 15s188.5 84.561 188.5 188.5v15h-15v-15C429.5 107.832 351.668 30 256 30c-40.548 0-80.002 14.291-111.096 40.239a7.5 7.5 0 009.611 11.517C182.917 58.053 218.958 45 256 45c87.397 0 158.5 71.103 158.5 158.5v15h-317v-15c0-37.042 13.054-73.083 36.755-101.484a7.5 7.5 0 00-11.515-9.611C96.79 123.498 82.5 162.952 82.5 203.5v15h-15zm339.521 45H354c-9.777 0-18.114-6.271-21.21-15h67.465a37.342 37.342 0 006.766 15zm-83 0H271c-9.777 0-18.114-6.271-21.21-15h67.465a37.342 37.342 0 006.766 15zm-83 0H188c-9.777 0-18.114-6.271-21.21-15h67.465a37.342 37.342 0 006.766 15zm-83 0H105c-9.777 0-18.114-6.271-21.21-15h67.465a37.342 37.342 0 006.766 15zm-135.521 0c-4.136 0-7.5-3.364-7.5-7.5s3.364-7.5 7.5-7.5h45.755a37.342 37.342 0 006.766 15zm423.068 204.764A52.36 52.36 0 01393.805 497h-275.61a52.361 52.361 0 01-51.764-43.736L45.986 332.501a325.196 325.196 0 005.486-1.949c10.014-3.626 19.472-7.052 38.865-7.052s28.852 3.425 38.865 7.052c10.79 3.908 21.947 7.948 43.973 7.948 22.024 0 33.182-4.041 43.971-7.948 10.014-3.626 19.471-7.052 38.863-7.052s28.85 3.425 38.862 7.052c10.789 3.908 21.945 7.948 43.969 7.948s33.18-4.041 43.968-7.948c10.013-3.626 19.47-7.052 38.86-7.052 19.392 0 28.85 3.425 38.862 7.052 1.801.652 3.613 1.308 5.483 1.948zM497 323.312c-14.517-.763-22.732-3.739-31.361-6.864-10.789-3.908-21.945-7.948-43.97-7.948-22.023 0-33.18 4.041-43.968 7.948-10.013 3.626-19.47 7.052-38.86 7.052s-28.849-3.425-38.861-7.052c-10.789-3.908-21.945-7.948-43.97-7.948s-33.182 4.041-43.971 7.948c-10.014 3.626-19.471 7.052-38.863 7.052-19.394 0-28.852-3.425-38.865-7.052-10.79-3.908-21.947-7.948-43.973-7.948s-33.183 4.041-43.973 7.948c-8.63 3.125-16.848 6.101-31.365 6.864V316c0-28.949 23.552-52.5 52.5-52.5h377c28.948 0 52.5 23.551 52.5 52.5z"/>
    </symbol>
    <symbol id="icon-logo" viewBox="0 0 58 59">
      <path d="M51.11 33.82c.05-.09.1-.18.14-.27.117-.21.22-.427.31-.65l2.24-5.22a2.19 2.19 0 014.2.86c0 .314-.067.625-.2.91l-3.92 8.62a9.463 9.463 0 01-1.97 2.84l-7.23 7.23-4.986 1-4.694-1v-2.86a9.485 9.485 0 011.97-5.92 6.23 6.23 0 012.87-2.11 21.306 21.306 0 006.05-3.86 3.548 3.548 0 013.51-.61z" fill="#fdd7ad" fill-rule="nonzero"/><path d="M31.26 22.16a7.155 7.155 0 01-.48.91c-2.47-2.34-4.33-.56-6.8-3.02-2.51-2.5-.63-4.38-3.14-6.88-2.46-2.46-4.33-.68-6.79-3.02h-.01a5.2 5.2 0 01.62-.8c.065-.09.139-.174.22-.25 2.79-2.77 7.79-2.4 11.78.66.49.376.954.784 1.39 1.22 3.41 3.38 4.59 7.93 3.21 11.18z" fill="#cb8252" fill-rule="nonzero"/><path d="M28.605 21.824h-.01" stroke="#000" stroke-linecap="round" stroke-linejoin="round" stroke-width="2"/><g fill-rule="nonzero"><path d="M30.78 23.07c-.18.28-.384.545-.61.79a.265.265 0 01-.05.06 1.624 1.624 0 01-.18.2c-3.12 3.1-9.02 2.27-13.17-1.88-3.41-3.39-4.59-7.94-3.2-11.19.133-.312.29-.613.47-.9h.01c2.46 2.34 4.33.56 6.79 3.02 2.51 2.5.63 4.38 3.14 6.88 2.47 2.46 4.33.68 6.8 3.02z" fill="#cf976a"/><path d="M34.04 9.33c0 4.17 3.14 4.17 3.14 8.34 0 4.09-3.04 4.15-3.14 8.15a9.1 9.1 0 01-.99-.27 10.149 10.149 0 01-2.93-1.63.265.265 0 00.05-.06c.226-.245.43-.51.61-.79.182-.291.342-.596.48-.91 1.38-3.25.2-7.8-3.21-11.18a14.28 14.28 0 00-1.39-1.22C27.84 4.67 31.4 1.02 35.61 1a8.15 8.15 0 011.57.18c-.1 4-3.14 4.06-3.14 8.15z" fill="#a56a43"/><path d="M45 13.5c.01 7.15-4.51 12.9-9.97 12.47a8.458 8.458 0 01-.99-.15c.1-4 3.14-4.06 3.14-8.15 0-4.17-3.14-4.17-3.14-8.34 0-4.09 3.04-4.15 3.14-8.15.333.072.661.17.98.29C42.11 2.95 45.01 7.78 45 13.5z" fill="#805333"/><path d="M8 14H5a1 1 0 010-2h3a1 1 0 010 2zM53 14h-3a1 1 0 010-2h3a1 1 0 010 2zM8.216 26a1 1 0 01-.5-1.866l2.6-1.5a1 1 0 111 1.732l-2.6 1.5a.992.992 0 01-.5.134zM47.187 3.5a1 1 0 01-.5-1.866l2.6-1.5a1 1 0 111 1.732l-2.6 1.5a1 1 0 01-.5.134zM49.784 26a.992.992 0 01-.5-.134l-2.6-1.5a1 1 0 111-1.732l2.6 1.5a1 1 0 01-.5 1.866zM10.812 3.5a1 1 0 01-.5-.134l-2.6-1.5a1 1 0 011-1.732l2.6 1.5a1 1 0 01-.5 1.866z" fill="#f0c419"/><path d="M31.26 22.16a7.155 7.155 0 01-.48.91c-.18.28-.384.545-.61.79-.03-.01-.05-.04-.08-.06a4.335 4.335 0 00-2.81-1.2 6.386 6.386 0 01-5.86-5.85 4.411 4.411 0 00-4.16-4.15 6.193 6.193 0 01-3.69-1.55c.133-.312.29-.613.47-.9a5.2 5.2 0 01.62-.8c.03.02.05.05.08.07a4.291 4.291 0 002.8 1.2 6.364 6.364 0 015.86 5.85 4.39 4.39 0 004.17 4.15 6.259 6.259 0 013.69 1.54z" fill="#805333"/><path d="M38.18 17.67a7.041 7.041 0 01-1.77 4.75 5.262 5.262 0 00-1.37 3.42.57.57 0 01-.01.13 8.458 8.458 0 01-.99-.15 9.1 9.1 0 01-.99-.27 7.223 7.223 0 011.76-4.33 5.119 5.119 0 001.37-3.55 5.232 5.232 0 00-1.37-3.57 7.078 7.078 0 01-1.77-4.77 7.041 7.041 0 011.77-4.75 5.262 5.262 0 001.37-3.42.57.57 0 01.01-.13c.333.03.663.08.99.15.333.072.661.17.98.29a7.067 7.067 0 01-1.76 4.31 5.114 5.114 0 00-1.36 3.55 5.232 5.232 0 001.37 3.57 7.078 7.078 0 011.77 4.77z" fill="#603e26"/><path d="M51.11 33.82a9.973 9.973 0 01-2.25 3.19l-4.55 4.57a.976.976 0 01-.71.3 1 1 0 01-.7-1.71l4.54-4.57a9.554 9.554 0 001.96-2.82z" fill="#cbb292"/><path d="M6.89 33.82c-.05-.09-.1-.18-.14-.27a5.514 5.514 0 01-.31-.65L4.2 27.68a2.19 2.19 0 00-4.2.86c0 .314.067.625.2.91l3.92 8.62a9.463 9.463 0 001.97 2.84l7.23 7.23 5.18 1 4.5-1v-2.86a9.485 9.485 0 00-1.97-5.92 6.23 6.23 0 00-2.87-2.11 21.306 21.306 0 01-6.05-3.86 3.548 3.548 0 00-3.51-.61z" fill="#fdd7ad"/><path d="M6.89 33.82a9.973 9.973 0 002.25 3.19l4.55 4.57a.976.976 0 00.71.3 1 1 0 00.7-1.71l-4.54-4.57a9.554 9.554 0 01-1.96-2.82z" fill="#cbb292"/><path d="M25 49.14v8a1 1 0 01-1 1H13a1 1 0 01-1-1v-8a1 1 0 011-1h11a1 1 0 011 1z" fill="#3b97d3"/><path d="M22 54.144h-1a1 1 0 010-2h1a1 1 0 010 2z" fill="#285680"/><path d="M46 49.14v8a1 1 0 01-1 1H34a1 1 0 01-1-1v-8a1 1 0 011-1h11a1 1 0 011 1z" fill="#3b97d3"/><path d="M37 54.144h-1a1 1 0 010-2h1a1 1 0 010 2z" fill="#285680"/></g>
    </symbol>
    <symbol id="icon-button" viewBox="0 0 512 512">
      <path d="M492.936 465.628l-6.405 22.419c-2.473 8.639-11.841 15.709-20.829 15.709H73.532c-8.987 0-18.356-7.07-20.829-15.709l-6.405-22.419h446.638z" fill="#e8d6bd"/>
      <path d="M443.915 175.476v87.149c0 96.267-78.042 174.298-174.298 174.298-49.849 0-94.796-20.927-126.562-54.468H95.319c-23.28 0-45.165-9.064-61.625-25.524S8.17 318.585 8.17 295.306c0-23.28 9.063-45.165 25.524-61.625s38.346-25.524 61.625-25.524v-32.681h348.596zm-32.681 87.149v-54.468c-35.404 0-35.404 15.251-70.809 15.251s-35.404-15.251-70.819-15.251c-35.393 0-35.393 15.251-70.798 15.251S163.404 208.157 128 208.157v54.468c0 78.085 63.532 141.617 141.617 141.617s141.617-63.532 141.617-141.617zM95.319 349.774h23.323c-14.837-25.633-23.323-55.405-23.323-87.149v-21.787c-14.554 0-28.225 5.665-38.52 15.948-10.284 10.294-15.948 23.966-15.948 38.52 0 14.554 5.665 28.225 15.959 38.52 10.284 10.283 23.955 15.948 38.509 15.948z" fill="#c8feff"/>
      <path d="M214.234 20.133L325.011 130.91c-21.079 21.079-62.976 13.366-93.565-17.223s-38.302-72.475-17.212-93.554z" fill="#b75548"/>
      <g fill="#8e4238">
        <path d="M307.788 37.356c30.589 30.589 38.302 72.475 17.223 93.554L214.234 20.133c21.079-21.09 62.954-13.377 93.554 17.223zM411.234 208.157v54.468c0 78.085-63.532 141.617-141.617 141.617S128 340.71 128 262.625v-54.468c35.404 0 35.404 15.251 70.809 15.251s35.404-15.251 70.798-15.251c35.415 0 35.415 15.251 70.819 15.251s35.404-15.251 70.808-15.251z"/>
      </g>
      <g fill="#700d00">
        <path d="M95.319 390.625h44.263c34.564 35.155 80.6 54.468 130.034 54.468 100.612 0 182.468-81.856 182.468-182.468v-87.149a8.169 8.169 0 00-8.17-8.17H95.318a8.169 8.169 0 00-8.17 8.17v24.853c-22.381 1.887-43.168 11.511-59.231 27.575C9.915 245.908 0 269.845 0 295.306s9.915 49.397 27.919 67.401c18.004 18.003 41.941 27.918 67.4 27.918zM39.472 239.459c14.914-14.917 34.747-23.132 55.846-23.132a8.169 8.169 0 008.17-8.17v-24.511h332.255v78.979c0 91.603-74.524 166.128-166.128 166.128-46.084 0-88.926-18.437-120.633-51.916a8.168 8.168 0 00-5.932-2.552H95.319c-21.094 0-40.927-8.215-55.846-23.133-14.918-14.918-23.133-34.751-23.133-55.846 0-21.097 8.215-40.93 23.132-55.847z"/>
        <path d="M95.319 357.944h23.322a8.173 8.173 0 007.073-12.261c-14.541-25.135-22.225-53.856-22.225-83.057v-21.787a8.169 8.169 0 00-8.17-8.17c-16.732 0-32.462 6.515-44.291 18.346-11.83 11.83-18.346 27.561-18.346 44.292 0 16.73 6.515 32.461 18.347 44.292 11.829 11.83 27.56 18.345 44.29 18.345zm-32.737-95.377c6.786-6.786 15.309-11.206 24.566-12.846v12.904c0 27.418 6.171 54.453 17.945 78.979h-9.774c-12.366 0-23.992-4.816-32.736-13.56-8.745-8.745-13.561-20.371-13.561-32.737-.001-12.369 4.815-23.994 13.56-32.74zM269.615 412.412c34.087 0 66.228-11.206 92.949-32.409a8.17 8.17 0 00-10.158-12.8c-23.801 18.885-52.431 28.868-82.792 28.868-73.583 0-133.447-59.864-133.447-133.447l.001-45.975c10.692.904 16.956 3.603 23.999 6.636 9.022 3.887 19.249 8.292 38.635 8.292 19.387 0 29.614-4.405 38.636-8.292 8.669-3.734 16.154-6.959 32.171-6.959 16.018 0 23.504 3.225 32.173 6.959 9.022 3.887 19.25 8.292 38.637 8.292s29.614-4.405 38.637-8.291c7.045-3.035 13.309-5.733 24.004-6.637l-.001 45.975c0 30.362-9.983 58.99-28.868 82.791a8.172 8.172 0 001.321 11.479c3.533 2.805 8.672 2.213 11.479-1.321 21.202-26.72 32.409-58.861 32.409-92.949l.001-54.468a8.18 8.18 0 00-2.392-5.778 8.171 8.171 0 00-5.778-2.392c-19.388 0-29.615 4.405-38.639 8.292-8.669 3.734-16.155 6.959-32.173 6.959s-23.504-3.225-32.173-6.959c-9.022-3.887-19.25-8.292-38.637-8.292-19.386 0-29.613 4.405-38.635 8.292-8.669 3.734-16.155 6.959-32.172 6.959-16.016 0-23.502-3.225-32.169-6.959-9.022-3.887-19.249-8.292-38.635-8.292a8.17 8.17 0 00-8.17 8.17l-.001 54.468c.001 82.593 67.196 149.788 149.788 149.788zM503.83 457.457H35.404a8.169 8.169 0 00-8.17 8.17 8.169 8.169 0 008.17 8.17h4.73l4.713 16.491c3.466 12.133 16.066 21.637 28.685 21.637h392.17c12.619 0 25.219-9.505 28.686-21.637l4.712-16.491h4.73a8.169 8.169 0 008.17-8.17 8.169 8.169 0 00-8.17-8.17zm-25.154 28.341c-1.464 5.121-7.648 9.786-12.974 9.786H73.532c-5.327 0-11.51-4.665-12.973-9.786l-3.428-12.001h424.975l-3.43 12.001zM225.669 119.466c19.722 19.722 45.128 31.497 67.959 31.499 14.97 0 27.818-4.937 37.158-14.276 12.152-12.153 16.776-30.076 13.022-50.47-3.55-19.283-14.292-38.691-30.247-54.646C293.837 11.85 268.431.074 245.601.074c-14.968 0-27.816 4.936-37.155 14.275-12.154 12.155-16.778 30.078-13.025 50.472 3.55 19.283 14.293 38.691 30.248 54.645zm76.337-76.338c13.638 13.637 22.775 29.99 25.732 46.048 2.1 11.407.828 21.538-3.548 29.36L270.993 65.34a8.17 8.17 0 10-11.555 11.555l53.203 53.202c-5.335 2.978-11.774 4.526-19.007 4.526-18.598-.002-39.685-9.988-56.41-26.713-13.638-13.637-22.775-29.99-25.731-46.048-2.1-11.407-.828-21.538 3.548-29.363L236.33 53.79a8.148 8.148 0 005.778 2.392 8.17 8.17 0 005.778-13.947l-21.294-21.294c5.336-2.978 11.776-4.525 19.012-4.525 18.589-.002 39.676 9.984 56.402 26.712z"/>
      </g>
    </symbol>
    <symbol id="icon-create-coffee" viewBox="-74 0 452 452.376">
      <path d="M65.008 172.238c-1.95 23.13-26.047 26.782-26.047 26.782 20.691.972 25.848 28.117 25.848 28.117.445-19.356 26.644-28.407 26.644-28.407-19.625-1.175-26.445-26.492-26.445-26.492zm0 0" fill="#d7e057"/>
      <path d="M91.633 195.734c-17.211-1.027-23.664-24.047-23.73-24.28a3.003 3.003 0 00-3.165-2.204 3.001 3.001 0 00-2.718 2.734c-1.72 20.43-22.625 23.926-23.508 24.063a3.001 3.001 0 00.309 5.965c18.054.851 22.995 25.437 23.046 25.687a2.998 2.998 0 003.196 2.422 3.001 3.001 0 002.75-2.918c.39-17.02 24.382-25.555 24.624-25.64a2.997 2.997 0 001.989-3.243 3.007 3.007 0 00-2.793-2.586zM64.5 216.43c-2.71-6.262-7.418-13.817-15.172-17.754 5.86-2.809 12.817-7.824 16.402-16.547 3.102 6.144 8.399 13.762 16.668 17.445-6.015 3.281-13.847 8.809-17.898 16.856zm0 0" fill="#3a312a"/>
      <path d="M21.613 206.2c-1.379 16.359-18.425 18.94-18.425 18.94 14.636.688 18.285 19.891 18.285 19.891.312-13.691 18.843-20.09 18.843-20.09-13.882-.832-18.703-18.742-18.703-18.742zm0 0" fill="#d7e057"/>
      <path d="M40.496 221.945c-11.535-.691-15.945-16.375-15.988-16.53a2.985 2.985 0 00-3.164-2.204 3.001 3.001 0 00-2.723 2.734c-1.156 13.743-15.289 16.133-15.883 16.227a3 3 0 00.309 5.965c12.07.566 15.45 17.289 15.476 17.453a3.002 3.002 0 005.95-.492c.261-11.418 16.664-17.27 16.824-17.325a2.996 2.996 0 001.992-3.242 2.996 2.996 0 00-2.793-2.586zm-19.168 13.59c-1.851-3.77-4.683-7.894-8.894-10.558 3.71-2.082 7.394-5.262 9.742-9.836 2.113 3.75 5.304 7.91 9.879 10.449-3.7 2.2-7.977 5.476-10.727 9.945zm0 0" fill="#3a312a"/>
      <path d="M21.613 152.883c-1.379 16.36-18.425 18.941-18.425 18.941 14.636.692 18.285 19.887 18.285 19.887.312-13.688 18.843-20.09 18.843-20.09-13.882-.828-18.703-18.738-18.703-18.738zm0 0" fill="#d7e057"/>
      <path d="M40.496 168.629c-11.535-.691-15.945-16.371-15.988-16.531a3.001 3.001 0 00-5.887.53c-1.156 13.743-15.289 16.134-15.883 16.227a3 3 0 00-2.547 3.122 3.005 3.005 0 002.856 2.843c12.07.567 15.45 17.29 15.48 17.453a2.998 2.998 0 003.192 2.43 3 3 0 002.754-2.922c.261-11.418 16.664-17.265 16.824-17.324a2.996 2.996 0 001.992-3.242 2.996 2.996 0 00-2.793-2.586zm-19.168 13.59c-1.851-3.774-4.683-7.895-8.894-10.563 3.71-2.082 7.394-5.258 9.742-9.832 2.113 3.75 5.304 7.91 9.879 10.45-3.7 2.199-7.977 5.48-10.727 9.945zm0 0" fill="#3a312a"/>
      <path d="M249.348 260.914h-34v-22.098c-9.407 6.52-19.137 10.368-28.578 10.368-9.06 0-18.618-3.887-27.985-10.48h-.574v22.21h-34.024c-28.421 0-51.464 23.043-51.464 51.465v136.394h228.093V312.38c-.003-28.426-23.043-51.465-51.468-51.465zm0 0" fill="#fce8cb"/>
      <path d="M249.348 257.91h-31v-19.098a3 3 0 00-4.711-2.46c-9.41 6.523-18.45 9.832-26.867 9.832-8.067 0-16.899-3.344-26.258-9.938a3 3 0 00-1.727-.547h-.578a3 3 0 00-3 3v19.211h-31.02c-30.035 0-54.464 24.438-54.464 54.465v136.398c0 1.657 1.34 3 3 3h228.09c1.66 0 3-1.343 3-3V312.375c0-30.027-24.434-54.465-54.465-54.465zm48.464 187.863H75.722V312.38c0-26.723 21.743-48.465 48.466-48.465h34.019c1.66 0 3-1.344 3-3v-17.016c8.906 5.5 17.484 8.286 25.563 8.286 8.203 0 16.789-2.645 25.578-7.872v16.602c0 1.656 1.34 3 3 3h34c26.726 0 48.464 21.742 48.464 48.465zm0 0" fill="#3a312a"/>
      <path d="M249.348 260.914h-34l-.02.035c-12.73 21.938-44.414 21.918-57.117-.035h-34.024c-28.421 0-51.464 23.043-51.464 51.465v136.394h228.093V312.38c-.003-28.426-23.043-51.465-51.468-51.465zm0 0" fill="#8ac6dd"/>
      <path d="M249.348 257.91h-34c-1.07 0-2.078.61-2.618 1.535-5.433 9.36-15.132 14.946-25.953 14.946h-.02c-10.827-.008-20.53-5.61-25.952-14.98a3.002 3.002 0 00-2.598-1.497h-34.02c-30.035 0-54.464 24.434-54.464 54.465v136.394c0 1.657 1.34 3 3 3h228.09c1.66 0 3-1.343 3-3V312.38c0-30.031-24.434-54.469-54.465-54.469zm48.464 187.863H75.722V312.38c0-26.723 21.743-48.465 48.466-48.465h32.34c6.648 10.344 17.82 16.469 30.226 16.477h.027c12.38 0 23.54-6.094 30.242-16.477h32.329c26.722 0 48.46 21.742 48.46 48.465zm0 0" fill="#3a312a"/>
      <path d="M98.395 113.086c-11.184 0-20.25 9.062-20.25 20.25 0 11.184 9.066 20.25 20.25 20.25 11.187 0 20.25-9.066 20.25-20.25 0-11.188-9.063-20.25-20.25-20.25zm0 0" fill="#fce8cb" fill-rule="evenodd"/>
      <path d="M98.395 110.086c-12.817 0-23.25 10.43-23.25 23.25 0 12.816 10.433 23.25 23.25 23.25 12.82 0 23.25-10.434 23.25-23.25 0-12.82-10.43-23.25-23.25-23.25zm0 40.5c-9.512 0-17.25-7.738-17.25-17.25 0-9.516 7.738-17.25 17.25-17.25 9.515 0 17.25 7.734 17.25 17.25 0 9.512-7.735 17.25-17.25 17.25zm0 0" fill="#3a312a"/>
      <path d="M275.145 113.086c-11.184 0-20.25 9.062-20.25 20.25 0 11.184 9.066 20.25 20.25 20.25 11.187 0 20.25-9.066 20.25-20.25 0-11.188-9.063-20.25-20.25-20.25zm0 0" fill="#fce8cb" fill-rule="evenodd"/>
      <path d="M275.145 110.086c-12.817 0-23.25 10.43-23.25 23.25 0 12.816 10.433 23.25 23.25 23.25 12.82 0 23.25-10.434 23.25-23.25 0-12.82-10.43-23.25-23.25-23.25zm0 40.5c-9.512 0-17.25-7.738-17.25-17.25 0-9.516 7.738-17.25 17.25-17.25 9.515 0 17.25 7.734 17.25 17.25 0 9.512-7.735 17.25-17.25 17.25zm0 0" fill="#3a312a"/>
      <path d="M186.77 33.73C137.19 33.73 97 73.926 97 123.504c0 49.582 49.66 125.68 89.77 125.68 42.023 0 89.773-76.098 89.773-125.68 0-49.578-40.191-89.774-89.773-89.774zm0 0" fill="#fce8cb"/>
      <g fill="#3a312a">
        <path d="M186.77 30.73C135.617 30.73 94 72.352 94 123.504c0 24.168 11.64 56.023 30.375 83.137 19.707 28.52 43.031 45.543 62.398 45.543 43.903 0 92.77-76.704 92.77-128.68 0-51.152-41.617-92.774-92.773-92.774zm0 215.458c-17.395 0-38.875-16.06-57.461-42.958C111.23 177.066 100 146.516 100 123.504c0-47.848 38.926-86.774 86.773-86.774 47.844 0 86.77 38.926 86.77 86.774 0 48.441-46.543 122.683-86.773 122.683zm0 0"/>
        <path d="M155.078 113.727c-4.84 0-8.766 3.925-8.766 8.761a8.765 8.765 0 108.766-8.761zm0 0M218.465 113.727a8.763 8.763 0 00-8.762 8.761c0 4.84 3.922 8.766 8.762 8.766s8.762-3.926 8.762-8.766a8.763 8.763 0 00-8.762-8.761zm0 0"/>
      </g>
      <path d="M137.563 137.258c-8.336 0-15.094 5.05-15.094 11.285 0 6.23 6.758 11.281 15.094 11.281s15.097-5.05 15.097-11.281c0-6.234-6.762-11.285-15.097-11.285zm0 0M235.977 137.258c-8.336 0-15.094 5.05-15.094 11.285 0 6.23 6.758 11.281 15.094 11.281 8.335 0 15.093-5.05 15.093-11.281 0-6.234-6.757-11.285-15.093-11.285zm0 0" fill="#f5978a"/>
      <path d="M280.723 102.754c0-49.063-21.989-99.75-92.918-99.75-69.16 0-92.914 50.691-92.914 99.754 0 5.191.941 9.058 2.687 13.89.82 2.282 14.125-4.996 15.258-5.793 5.668-3.992 10.293-9.394 13.758-15.375a52.632 52.632 0 003.582-7.539c3.062-8.07 11.383-30.527 19.836-28.765 11.328 2.363 24.172 3.699 37.797 3.699s26.464-1.336 37.796-3.7c8.45-1.76 16.774 20.696 19.836 28.766a52.216 52.216 0 003.582 7.54c5.72 9.89 15.372 19.3 27.118 21.011.03-.566.746-.758 1.28-.953 3.84-1.394 3.302-9.703 3.302-12.785zm0 0" fill="#87796f"/>
      <path d="M283.734 103.75l-.011-.996C283.723 71.859 274.379 0 187.805 0c-32.813 0-57.965 10.98-74.762 32.64-17.484 22.544-21.152 50.57-21.152 70.118 0 5.82 1.093 10.023 2.863 14.91.383 1.059 1.238 1.867 2.351 2.215.356.113.766.164 1.223.164 5.188 0 16.129-6.664 16.234-6.742 5.72-4.024 10.774-9.668 14.63-16.325a55.634 55.634 0 003.788-7.976l.196-.508c9.433-24.894 14.48-26.773 16.222-26.383 11.973 2.496 24.895 3.762 38.41 3.762s26.438-1.266 38.41-3.762c1.739-.39 6.79 1.492 16.227 26.383l.192.508a55.049 55.049 0 003.793 7.98c7.199 12.454 18.144 20.856 29.277 22.48a2.98 2.98 0 002.336-.651c.176-.141.332-.301.469-.473 5.406-2.035 5.285-10.2 5.222-14.59zm-7.464 9.016a6.438 6.438 0 00-1.133.507c-8.848-1.863-17.551-8.968-23.516-19.289a48.924 48.924 0 01-3.375-7.109l-.195-.508c-6.371-16.816-13.586-32.11-23.059-30.129-11.57 2.41-24.082 3.633-37.187 3.633-13.102 0-25.614-1.223-37.184-3.633-9.488-1.945-16.684 13.313-23.059 30.13l-.19.507a49.49 49.49 0 01-3.376 7.102c-3.422 5.91-7.879 10.894-12.875 14.414-1.48.992-8.191 4.449-11.351 5.433-1.176-3.543-1.88-6.832-1.883-11.066C97.887 80.058 104.37 6 187.805 6c81.156 0 89.918 67.66 89.918 96.754l.007 1.082c.118 7.754-.992 8.762-1.46 8.93zm0 0M212.625 178.074a2.996 2.996 0 00-3.86 1.754c-1.75 4.668-8.597 13.492-21.995 13.492-10.473 0-17.7-4.488-22.098-13.726a3.004 3.004 0 00-4-1.418 3.001 3.001 0 00-1.418 3.996c5.418 11.379 14.676 17.148 27.516 17.148 14.496 0 24.476-9.011 27.613-17.382a2.997 2.997 0 00-1.758-3.864zm0 0" fill="#3a312a"/>
      <path d="M105.11 330.176h163.25V448.78H105.11zm0 0" fill="#d7e057"/>
      <path d="M268.36 381.984c1.66 0 3-1.343 3-3v-48.808c0-1.656-1.34-3-3-3H105.11a3 3 0 00-3 3V448.78a3 3 0 003 3h163.25c1.66 0 3-1.344 3-3v-40.004a3 3 0 00-6 0v37.004H108.11V333.176h157.25v45.808a3 3 0 003 3zm0 0" fill="#3a312a"/>
      <path d="M126.71 249.188c-6.616 0-11.98 5.363-11.98 11.976v19.137h.004v29.828h-.004v30.637c0 6.617 5.364 11.98 11.98 11.98 6.618 0 11.981-5.363 11.981-11.98v-79.602c0-6.617-5.363-11.976-11.98-11.976zm0 0" fill="#d7e057"/>
      <path d="M126.71 246.188c-8.26 0-14.98 6.714-14.98 14.976v19.137c0 1.656 1.348 3 3.004 3 1.66 0 3-1.344 3-3 0-.04 0-.082-.004-.121v-19.02c0-4.95 4.032-8.976 8.98-8.976 4.954 0 8.981 4.027 8.981 8.976v79.606c0 4.949-4.027 8.976-8.98 8.976-4.95 0-8.98-4.027-8.98-8.976v-30.52c.003-.039.003-.082.003-.121a3.002 3.002 0 00-6.004 0v30.637c0 8.261 6.723 14.98 14.98 14.98 8.263 0 14.981-6.719 14.981-14.98V261.16c0-8.258-6.722-14.973-14.98-14.973zm0 0" fill="#3a312a"/>
      <path d="M246.871 249.184c-6.617 0-11.98 5.363-11.98 11.98v79.602c0 6.617 5.363 11.98 11.98 11.98 6.613 0 11.98-5.363 11.98-11.98v-79.602c-.003-6.617-5.367-11.98-11.98-11.98zm0 0" fill="#d7e057"/>
      <path d="M246.871 246.188c-8.262 0-14.98 6.714-14.98 14.976v79.602c0 8.261 6.718 14.98 14.98 14.98 8.258 0 14.98-6.719 14.98-14.98v-79.602c-.003-8.262-6.722-14.976-14.98-14.976zm8.977 94.578c0 4.953-4.028 8.98-8.98 8.98-4.95 0-8.981-4.031-8.981-8.98v-79.602c0-4.953 4.031-8.976 8.98-8.976 4.953 0 8.98 4.027 8.98 8.976zm0 0M126.71 333.262a4.601 4.601 0 00-4.6 4.597 4.602 4.602 0 004.6 4.602 4.596 4.596 0 004.599-4.602 4.595 4.595 0 00-4.598-4.597zm0 0" fill="#3a312a"/>
      <path d="M247.14 333.262a4.601 4.601 0 00-4.6 4.597 4.602 4.602 0 009.202 0 4.599 4.599 0 00-4.601-4.597zm0 0" fill="#3a312a"/>
      <path d="M143.32 413.375H87.434l17.605-83.145-31.18-28.82-26.164 126.313a18 18 0 0017.625 21.652h78c9.942 0 18-8.059 18-18s-8.058-18-18-18zm0 0" fill="#8ac6dd"/>
      <path d="M143.32 410.375H91.133l16.84-79.523a3 3 0 00-2.313-3.559c-1.613-.328-3.215.695-3.555 2.316l-17.609 83.145a2.997 2.997 0 002.934 3.621h55.886c8.274 0 15 6.73 15 15 0 8.273-6.726 15-15 15h-78c-4.53 0-8.77-2.016-11.629-5.527a14.951 14.951 0 01-3.058-12.512L76.797 302.02a3 3 0 10-5.875-1.22L44.758 427.118a20.909 20.909 0 004.277 17.52 20.918 20.918 0 0016.285 7.738h78c11.578 0 21-9.418 21-21 0-11.578-9.422-21-21-21zm0 0" fill="#3a312a"/>
      <path d="M143.32 413.375h-29.254v36h29.254c9.942 0 18-8.059 18-18s-8.058-18-18-18zm0 0" fill="#fce8cb"/>
      <path d="M143.32 410.375h-29.254a3 3 0 00-3 3v36a3 3 0 003 3h29.254c11.578 0 21-9.418 21-21 0-11.578-9.422-21-21-21zm0 36h-26.254v-30h26.254c8.274 0 15 6.73 15 15 0 8.273-6.726 15-15 15zm0 0" fill="#3a312a"/>
      <path d="M209.316 330.172h-65.613a4.969 4.969 0 00-4.969 4.969v44.464c0 12.645 10.254 22.899 22.899 22.899h29.758c12.644 0 22.898-10.25 22.898-22.899v-44.464a4.975 4.975 0 00-4.973-4.97zm0 0" fill="#f16c7a"/>
      <path d="M209.316 327.176h-65.613c-4.394 0-7.969 3.57-7.969 7.965v44.464c0 14.282 11.621 25.899 25.899 25.899h29.754c14.281 0 25.898-11.621 25.898-25.899v-44.464c0-4.395-3.574-7.965-7.969-7.965zm1.97 52.433c0 10.97-8.927 19.895-19.9 19.895h-29.753c-10.969 0-19.899-8.926-19.899-19.895v-44.468a1.97 1.97 0 011.97-1.965h65.612a1.97 1.97 0 011.97 1.965zm0 0" fill="#3a312a"/>
      <path d="M127.742 402.504c0 6.004 4.867 10.871 10.871 10.871h75.797c6.004 0 10.871-4.867 10.871-10.871zm0 0" fill="#87796f"/>
      <path d="M225.281 399.504h-97.539a3 3 0 00-3 3c0 7.648 6.223 13.871 13.871 13.871h75.797c7.649 0 13.871-6.223 13.871-13.871a3 3 0 00-3-3zm-10.87 10.871h-75.798c-3.277 0-6.093-2.016-7.277-4.871h90.351c-1.183 2.855-4 4.871-7.277 4.871zm0 0" fill="#3a312a"/>
      <path d="M215 340.457c-.242 0-.477.004-.71.012v7.84c.233-.012.468-.02.71-.02 9.102 0 16.512 7.41 16.512 16.512 0 9.097-7.41 16.508-16.512 16.508-.258 0-.516-.004-.773-.024a22.514 22.514 0 01-1.95 7.7c.891.109 1.805.156 2.723.156 13.422 0 24.344-10.922 24.344-24.34 0-13.422-10.922-24.344-24.344-24.344zm0 0" fill="#f16c7a"/>
      <path d="M214.996 337.457l-.785.012a3.006 3.006 0 00-2.926 3v7.84c0 .82.336 1.605.934 2.171a2.96 2.96 0 002.219.825c.183-.012.37-.016.562-.016 7.45 0 13.512 6.063 13.512 13.516 0 7.449-6.063 13.504-13.512 13.504-.2 0-.395-.004-.59-.016a3.003 3.003 0 00-3.176 2.781 19.6 19.6 0 01-1.691 6.68 2.991 2.991 0 00.125 2.71 2.985 2.985 0 002.258 1.5c.992.122 2.023.18 3.074.18 15.078 0 27.344-12.265 27.344-27.34 0-15.081-12.266-27.347-27.348-27.347zm1.469 48.637c.16-.621.297-1.242.41-1.875 9.883-.95 17.633-9.293 17.633-19.418 0-9.985-7.54-18.242-17.223-19.38v-1.847c10.695 1.149 19.059 10.23 19.059 21.227 0 11.273-8.79 20.535-19.88 21.293zm0 0" fill="#3a312a"/>
      <path d="M261.855 265.559v9.222c10.961 8.88 17.961 22.438 17.961 37.598V445.78h18V312.38c0-22.399-15.28-41.297-35.96-46.82zm0 0" fill="#68a8bc"/>
    </symbol>
</svg>
