<svg display="none" xmlns="http://www.w3.org/2000/svg">
    <symbol id="icon-basket" viewBox="0 0 512 512">
      <path d="M486.861 263.5h2.639c12.406 0 22.5-10.093 22.5-22.5s-10.094-22.5-22.5-22.5h-30v-15C459.5 91.29 368.21 0 256 0S52.5 91.29 52.5 203.5v15h-30C10.094 218.5 0 228.593 0 241s10.094 22.5 22.5 22.5h2.639C9.82 275.884 0 294.813 0 316v15a7.5 7.5 0 007.5 7.5c9.839 0 17.505-.807 23.942-2.048l20.2 119.316A67.32 67.32 0 00118.195 512h275.609a67.32 67.32 0 0066.553-56.232l20.2-119.316c6.438 1.241 14.104 2.048 23.942 2.048a7.5 7.5 0 007.5-7.5v-15c.001-21.187-9.819-40.116-25.138-52.5zm2.639-30c4.136 0 7.5 3.364 7.5 7.5s-3.364 7.5-7.5 7.5H437c-9.777 0-18.114-6.271-21.21-15zm-422-30C67.5 99.561 152.061 15 256 15s188.5 84.561 188.5 188.5v15h-15v-15C429.5 107.832 351.668 30 256 30c-40.548 0-80.002 14.291-111.096 40.239a7.5 7.5 0 009.611 11.517C182.917 58.053 218.958 45 256 45c87.397 0 158.5 71.103 158.5 158.5v15h-317v-15c0-37.042 13.054-73.083 36.755-101.484a7.5 7.5 0 00-11.515-9.611C96.79 123.498 82.5 162.952 82.5 203.5v15h-15zm339.521 45H354c-9.777 0-18.114-6.271-21.21-15h67.465a37.342 37.342 0 006.766 15zm-83 0H271c-9.777 0-18.114-6.271-21.21-15h67.465a37.342 37.342 0 006.766 15zm-83 0H188c-9.777 0-18.114-6.271-21.21-15h67.465a37.342 37.342 0 006.766 15zm-83 0H105c-9.777 0-18.114-6.271-21.21-15h67.465a37.342 37.342 0 006.766 15zm-135.521 0c-4.136 0-7.5-3.364-7.5-7.5s3.364-7.5 7.5-7.5h45.755a37.342 37.342 0 006.766 15zm423.068 204.764A52.36 52.36 0 01393.805 497h-275.61a52.361 52.361 0 01-51.764-43.736L45.986 332.501a325.196 325.196 0 005.486-1.949c10.014-3.626 19.472-7.052 38.865-7.052s28.852 3.425 38.865 7.052c10.79 3.908 21.947 7.948 43.973 7.948 22.024 0 33.182-4.041 43.971-7.948 10.014-3.626 19.471-7.052 38.863-7.052s28.85 3.425 38.862 7.052c10.789 3.908 21.945 7.948 43.969 7.948s33.18-4.041 43.968-7.948c10.013-3.626 19.47-7.052 38.86-7.052 19.392 0 28.85 3.425 38.862 7.052 1.801.652 3.613 1.308 5.483 1.948zM497 323.312c-14.517-.763-22.732-3.739-31.361-6.864-10.789-3.908-21.945-7.948-43.97-7.948-22.023 0-33.18 4.041-43.968 7.948-10.013 3.626-19.47 7.052-38.86 7.052s-28.849-3.425-38.861-7.052c-10.789-3.908-21.945-7.948-43.97-7.948s-33.182 4.041-43.971 7.948c-10.014 3.626-19.471 7.052-38.863 7.052-19.394 0-28.852-3.425-38.865-7.052-10.79-3.908-21.947-7.948-43.973-7.948s-33.183 4.041-43.973 7.948c-8.63 3.125-16.848 6.101-31.365 6.864V316c0-28.949 23.552-52.5 52.5-52.5h377c28.948 0 52.5 23.551 52.5 52.5z"/>
    </symbol>
    <symbol id="icon-logo" viewBox="0 0 58 59">
      <path d="M51.11 33.82c.05-.09.1-.18.14-.27.117-.21.22-.427.31-.65l2.24-5.22a2.19 2.19 0 014.2.86c0 .314-.067.625-.2.91l-3.92 8.62a9.463 9.463 0 01-1.97 2.84l-7.23 7.23-4.986 1-4.694-1v-2.86a9.485 9.485 0 011.97-5.92 6.23 6.23 0 012.87-2.11 21.306 21.306 0 006.05-3.86 3.548 3.548 0 013.51-.61z" fill="#fdd7ad" fill-rule="nonzero"/><path d="M31.26 22.16a7.155 7.155 0 01-.48.91c-2.47-2.34-4.33-.56-6.8-3.02-2.51-2.5-.63-4.38-3.14-6.88-2.46-2.46-4.33-.68-6.79-3.02h-.01a5.2 5.2 0 01.62-.8c.065-.09.139-.174.22-.25 2.79-2.77 7.79-2.4 11.78.66.49.376.954.784 1.39 1.22 3.41 3.38 4.59 7.93 3.21 11.18z" fill="#cb8252" fill-rule="nonzero"/><path d="M28.605 21.824h-.01" stroke="#000" stroke-linecap="round" stroke-linejoin="round" stroke-width="2"/><g fill-rule="nonzero"><path d="M30.78 23.07c-.18.28-.384.545-.61.79a.265.265 0 01-.05.06 1.624 1.624 0 01-.18.2c-3.12 3.1-9.02 2.27-13.17-1.88-3.41-3.39-4.59-7.94-3.2-11.19.133-.312.29-.613.47-.9h.01c2.46 2.34 4.33.56 6.79 3.02 2.51 2.5.63 4.38 3.14 6.88 2.47 2.46 4.33.68 6.8 3.02z" fill="#cf976a"/><path d="M34.04 9.33c0 4.17 3.14 4.17 3.14 8.34 0 4.09-3.04 4.15-3.14 8.15a9.1 9.1 0 01-.99-.27 10.149 10.149 0 01-2.93-1.63.265.265 0 00.05-.06c.226-.245.43-.51.61-.79.182-.291.342-.596.48-.91 1.38-3.25.2-7.8-3.21-11.18a14.28 14.28 0 00-1.39-1.22C27.84 4.67 31.4 1.02 35.61 1a8.15 8.15 0 011.57.18c-.1 4-3.14 4.06-3.14 8.15z" fill="#a56a43"/><path d="M45 13.5c.01 7.15-4.51 12.9-9.97 12.47a8.458 8.458 0 01-.99-.15c.1-4 3.14-4.06 3.14-8.15 0-4.17-3.14-4.17-3.14-8.34 0-4.09 3.04-4.15 3.14-8.15.333.072.661.17.98.29C42.11 2.95 45.01 7.78 45 13.5z" fill="#805333"/><path d="M8 14H5a1 1 0 010-2h3a1 1 0 010 2zM53 14h-3a1 1 0 010-2h3a1 1 0 010 2zM8.216 26a1 1 0 01-.5-1.866l2.6-1.5a1 1 0 111 1.732l-2.6 1.5a.992.992 0 01-.5.134zM47.187 3.5a1 1 0 01-.5-1.866l2.6-1.5a1 1 0 111 1.732l-2.6 1.5a1 1 0 01-.5.134zM49.784 26a.992.992 0 01-.5-.134l-2.6-1.5a1 1 0 111-1.732l2.6 1.5a1 1 0 01-.5 1.866zM10.812 3.5a1 1 0 01-.5-.134l-2.6-1.5a1 1 0 011-1.732l2.6 1.5a1 1 0 01-.5 1.866z" fill="#f0c419"/><path d="M31.26 22.16a7.155 7.155 0 01-.48.91c-.18.28-.384.545-.61.79-.03-.01-.05-.04-.08-.06a4.335 4.335 0 00-2.81-1.2 6.386 6.386 0 01-5.86-5.85 4.411 4.411 0 00-4.16-4.15 6.193 6.193 0 01-3.69-1.55c.133-.312.29-.613.47-.9a5.2 5.2 0 01.62-.8c.03.02.05.05.08.07a4.291 4.291 0 002.8 1.2 6.364 6.364 0 015.86 5.85 4.39 4.39 0 004.17 4.15 6.259 6.259 0 013.69 1.54z" fill="#805333"/><path d="M38.18 17.67a7.041 7.041 0 01-1.77 4.75 5.262 5.262 0 00-1.37 3.42.57.57 0 01-.01.13 8.458 8.458 0 01-.99-.15 9.1 9.1 0 01-.99-.27 7.223 7.223 0 011.76-4.33 5.119 5.119 0 001.37-3.55 5.232 5.232 0 00-1.37-3.57 7.078 7.078 0 01-1.77-4.77 7.041 7.041 0 011.77-4.75 5.262 5.262 0 001.37-3.42.57.57 0 01.01-.13c.333.03.663.08.99.15.333.072.661.17.98.29a7.067 7.067 0 01-1.76 4.31 5.114 5.114 0 00-1.36 3.55 5.232 5.232 0 001.37 3.57 7.078 7.078 0 011.77 4.77z" fill="#603e26"/><path d="M51.11 33.82a9.973 9.973 0 01-2.25 3.19l-4.55 4.57a.976.976 0 01-.71.3 1 1 0 01-.7-1.71l4.54-4.57a9.554 9.554 0 001.96-2.82z" fill="#cbb292"/><path d="M6.89 33.82c-.05-.09-.1-.18-.14-.27a5.514 5.514 0 01-.31-.65L4.2 27.68a2.19 2.19 0 00-4.2.86c0 .314.067.625.2.91l3.92 8.62a9.463 9.463 0 001.97 2.84l7.23 7.23 5.18 1 4.5-1v-2.86a9.485 9.485 0 00-1.97-5.92 6.23 6.23 0 00-2.87-2.11 21.306 21.306 0 01-6.05-3.86 3.548 3.548 0 00-3.51-.61z" fill="#fdd7ad"/><path d="M6.89 33.82a9.973 9.973 0 002.25 3.19l4.55 4.57a.976.976 0 00.71.3 1 1 0 00.7-1.71l-4.54-4.57a9.554 9.554 0 01-1.96-2.82z" fill="#cbb292"/><path d="M25 49.14v8a1 1 0 01-1 1H13a1 1 0 01-1-1v-8a1 1 0 011-1h11a1 1 0 011 1z" fill="#3b97d3"/><path d="M22 54.144h-1a1 1 0 010-2h1a1 1 0 010 2z" fill="#285680"/><path d="M46 49.14v8a1 1 0 01-1 1H34a1 1 0 01-1-1v-8a1 1 0 011-1h11a1 1 0 011 1z" fill="#3b97d3"/><path d="M37 54.144h-1a1 1 0 010-2h1a1 1 0 010 2z" fill="#285680"/>
    </symbol>
</svg>
